<?xml version="1.0" encoding="UTF-8" standalone="no"?>
<svg
   width="640pt"
   height="640pt"
   version="1.1"
   viewBox="0 0 640 640"
   id="svg1"
   sodipodi:docname="draftsman-tape-logo-white.svg"
   inkscape:version="1.4.3 (0d15f75, 2025-12-25)"
   xmlns:inkscape="http://www.inkscape.org/namespaces/inkscape"
   xmlns:sodipodi="http://sodipodi.sourceforge.net/DTD/sodipodi-0.dtd"
   xmlns="http://www.w3.org/2000/svg"
   xmlns:svg="http://www.w3.org/2000/svg">
  <defs
     id="defs1" />
  <sodipodi:namedview
     id="namedview1"
     pagecolor="#ffffff"
     bordercolor="#000000"
     borderopacity="0.25"
     inkscape:showpageshadow="2"
     inkscape:pageopacity="0.0"
     inkscape:pagecheckerboard="0"
     inkscape:deskcolor="#d1d1d1"
     inkscape:document-units="pt"
     inkscape:zoom="1"
     inkscape:cx="575.5"
     inkscape:cy="532"
     inkscape:window-width="1685"
     inkscape:window-height="1273"
     inkscape:window-x="1902"
     inkscape:window-y="25"
     inkscape:window-maximized="0"
     inkscape:current-layer="svg1" />
  <path
     id="path1-9"
     d="m 598.98181,369.74273 c -17.531,0 -23.93867,12.88965 -23.59918,30.41736 l 2.72727,140.80836 42.10681,1.27064 c 5.8594,0 10.594,-4.7344 10.594,-10.594 l -0.047,-130.13003 c 0,-17.484 -14.25,-31.781 -31.781,-31.781 z m -23.59818,125.40391 6.72618,-21.57985 z m 34.19318,25.90909 h -21.188 v -119.48 c 0,-5.8594 4.7344,-10.594 10.594,-10.594 5.8596,0 10.594,4.7344 10.594,10.594 z M 587.049,445.923 l 0.0469,-220.92 c 0,-29.438 -6.5156,-57.375 -17.906,-82.594 l 12.375,-12.375 c 16.5,-16.5 16.5,-43.406 0,-59.906 L 540.7369,29.3 c -16.547,-16.5 -43.406,-16.5 -59.906,0 l -12.375,12.375 c -25.219,-11.438 -53.156,-17.906 -82.594,-17.906 l -171.94,-0.0469 c -111,0 -201.279996,90.28099 -201.279996,201.28 v 171.89 c 0,39.70299 11.531,77.76599 33.046996,110.33999 l -22.780996,20.953 c -6.7031,6.1875 -10.266,14.25 -10.266,23.39101 v 14.81199 c 0,17.531 14.25,31.781 31.780996,31.781 h 468.52 c 37.312,0 68.156,-27.703 73.312,-63.609 z M 495.74,44.25 c 8.25,-8.25 21.703,-8.25 29.953,0 l 40.828,40.828 c 3.9844,3.9844 6.1875,9.3281 6.1875,15 0,5.6719 -2.2031,11.016 -6.1875,15 l -7.6875,7.6875 c -17.297,-29.156 -41.672,-53.531 -70.781,-70.781 z M 44.43,576.94 c -5.8594,0 -10.594,-4.7344 -10.594,-10.594 v -14.812 c 0,-3.1875 1.0781,-5.625 3.4219,-7.7812 l 21.094,-19.406 c 3.8438,4.6875 7.9219,9.1875 12.188,13.547 15.844,16.078 33.891,29.203 53.531,39.047 z m 521.48,-52.969 c 0,29.203 -23.766,52.969 -52.969,52.969 h -302.21 v -0.0469 c -97.547,-1.6875 -176.9,-82.5 -176.9,-180.09999 v -171.89 c 0,-99.328 80.812,-180.1 180.1,-180.1 h 171.89 c 99.328,0 180.1,80.812 180.1,180.1 z m 21.14,-10.5943 v -46.219 z M 299.855,143.543 c -92.297,0 -167.39,75.094 -167.39,167.39 0,92.296 75.094,167.39 167.39,167.39 92.297,0 167.39,-75.094 167.39,-167.39 0,-92.296 -75.094,-167.39 -167.39,-167.39 z m 0,313.6 c -80.625,0 -146.21,-65.578 -146.21,-146.21 0,-80.629 65.578,-146.21 146.21,-146.21 80.629,0 146.21,65.578 146.21,146.21 0,80.629 -65.578,146.21 -146.21,146.21 z m 61.312,-183.28 h -122.63 c -20.438,0 -37.078,16.641 -37.078,37.078 0,20.437 16.641,37.078 37.078,37.078 h 122.63 c 20.438,0 37.078,-16.641 37.078,-37.078 0,-20.437 -16.641,-37.078 -37.078,-37.078 z m 0,52.969 h -122.63 c -8.7656,0 -15.891,-7.125 -15.891,-15.891 0,-8.766 7.125,-15.891 15.891,-15.891 h 122.63 c 8.7656,0 15.891,7.125 15.891,15.891 0,8.766 -7.125,15.891 -15.891,15.891 z m 93.609,183.98 c 0,24.797 20.156,44.953 44.953,44.953 24.797,0 44.953,-20.156 44.953,-44.953 0,-24.797 -20.156,-44.953 -44.953,-44.953 -24.797,0 -44.953,20.156 -44.953,44.953 z m 68.766,0 c 0,13.125 -10.688,23.766 -23.766,23.766 -13.125,0 -23.766,-10.688 -23.766,-23.766 0,-13.125 10.688,-23.766 23.766,-23.766 13.078,0 23.766,10.641 23.766,23.766 z" />
</svg>
