<?xml version="1.0" encoding="UTF-8" standalone="no"?>
<svg
   width="24"
   height="24"
   viewBox="0 0 24 24"
   fill="none"
   stroke="currentColor"
   stroke-width="2"
   stroke-linecap="round"
   stroke-linejoin="round"
   class="icon icon-tabler icons-tabler-outline icon-tabler-square-key"
   version="1.1"
   id="svg5"
   sodipodi:docname="tabler--square-key-sky.svg"
   inkscape:version="1.4.3 (0d15f75, 2025-12-25)"
   xmlns:inkscape="http://www.inkscape.org/namespaces/inkscape"
   xmlns:sodipodi="http://sodipodi.sourceforge.net/DTD/sodipodi-0.dtd"
   xmlns="http://www.w3.org/2000/svg"
   xmlns:svg="http://www.w3.org/2000/svg">
  <defs
     id="defs5" />
  <sodipodi:namedview
     id="namedview5"
     pagecolor="#ffffff"
     bordercolor="#000000"
     borderopacity="0.25"
     inkscape:showpageshadow="2"
     inkscape:pageopacity="0.0"
     inkscape:pagecheckerboard="0"
     inkscape:deskcolor="#d1d1d1"
     inkscape:zoom="36.666667"
     inkscape:cx="12"
     inkscape:cy="12.013636"
     inkscape:window-width="1839"
     inkscape:window-height="1186"
     inkscape:window-x="1977"
     inkscape:window-y="97"
     inkscape:window-maximized="0"
     inkscape:current-layer="svg5" />
  <path
     stroke="none"
     d="M0 0h24v24H0z"
     fill="none"
     id="path1" />
  <path
     d="M12 10a2 2 0 1 0 4 0a2 2 0 1 0 -4 0"
     id="path2"
     style="stroke:#0ea5e9;stroke-opacity:1" />
  <path
     d="M12.5 11.5l-4 4l1.5 1.5"
     id="path3"
     style="stroke:#0ea5e9;stroke-opacity:1" />
  <path
     d="M12 15l-1.5 -1.5"
     id="path4"
     style="stroke:#0ea5e9;stroke-opacity:1" />
  <path
     d="M3 5a2 2 0 0 1 2 -2h14a2 2 0 0 1 2 2v14a2 2 0 0 1 -2 2h-14a2 2 0 0 1 -2 -2v-14"
     id="path5"
     style="stroke:#0ea5e9;stroke-opacity:1" />
</svg>
